<?xml version="1.0" encoding="UTF-8" standalone="no"?>
<!DOCTYPE svg PUBLIC "-//W3C//DTD SVG 1.1//EN"
 "http://www.w3.org/Graphics/SVG/1.1/DTD/svg11.dtd">
<!-- Generated by graphviz version 2.50.0 (0)
 -->
<!-- Title: G Pages: 1 -->
<svg width="184pt" height="303pt"
 viewBox="0.00 0.00 183.77 303.43" xmlns="http://www.w3.org/2000/svg" xmlns:xlink="http://www.w3.org/1999/xlink">
<g id="graph0" class="graph" transform="scale(1 1) rotate(0) translate(4 299.43)">
<title>G</title><style>.edge>path:hover{stroke-width:8}</style>
<polygon fill="white" stroke="transparent" points="-4,4 -4,-299.43 179.77,-299.43 179.77,4 -4,4"/>
<!-- markdown -->
<g id="node1" class="node">
<title>markdown</title><style>.edge>path:hover{stroke-width:8}</style>
<ellipse fill="#c24747" stroke="black" cx="40.03" cy="-277.43" rx="40.06" ry="18"/>
<text text-anchor="middle" x="40.03" y="-274.93" font-family="Helvetica,sans-Serif" font-size="10.00" fill="#ffffff">markdown</text>
</g>
<!-- markdown_exec -->
<g id="node2" class="node">
<title>markdown_exec</title><style>.edge>path:hover{stroke-width:8}</style>
<ellipse fill="#46a446" stroke="black" cx="75.03" cy="-18" rx="57.2" ry="18"/>
<text text-anchor="middle" x="75.03" y="-15.5" font-family="Helvetica,sans-Serif" font-size="10.00" fill="#ffffff">markdown_exec</text>
</g>
<!-- markdown&#45;&gt;markdown_exec -->
<g id="edge1" class="edge">
<title>markdown&#45;&gt;markdown_exec</title><style>.edge>path:hover{stroke-width:8}</style>
<path fill="none" stroke="black" d="M37.43,-259.31C36.45,-248.73 36.34,-235 40.03,-223.43"/>
<path fill="none" stroke="black" d="M40.03,-222.43C57.78,-166.78 41.39,-149.4 40.03,-91"/>
<path fill="none" stroke="black" d="M40.03,-89C39.41,-72.89 46.88,-56.68 55.08,-43.92"/>
<polygon fill="#c24747" stroke="black" points="57.96,-45.9 60.77,-35.69 52.21,-41.92 57.96,-45.9"/>
</g>
<!-- pymdownx_superfences -->
<g id="node4" class="node">
<title>pymdownx_superfences</title><style>.edge>path:hover{stroke-width:8}</style>
<ellipse fill="#4c4cb3" stroke="black" cx="122.03" cy="-165.21" rx="53.98" ry="21.43"/>
<text text-anchor="middle" x="122.03" y="-168.21" font-family="Helvetica,sans-Serif" font-size="10.00" fill="#ffffff">pymdownx.</text>
<text text-anchor="middle" x="122.03" y="-157.21" font-family="Helvetica,sans-Serif" font-size="10.00" fill="#ffffff">superfences</text>
</g>
<!-- markdown&#45;&gt;pymdownx_superfences -->
<g id="edge2" class="edge">
<title>markdown&#45;&gt;pymdownx_superfences</title><style>.edge>path:hover{stroke-width:8}</style>
<path fill="none" stroke="black" d="M40.03,-222.43C45.34,-205.79 59.25,-193.53 74.14,-184.78"/>
<polygon fill="#c24747" stroke="black" points="75.82,-187.85 82.97,-180.02 72.5,-181.69 75.82,-187.85"/>
</g>
<!-- pymdownx -->
<g id="node3" class="node">
<title>pymdownx</title><style>.edge>path:hover{stroke-width:8}</style>
<ellipse fill="#5353b6" stroke="black" cx="110.03" cy="-90" rx="41.59" ry="18"/>
<text text-anchor="middle" x="110.03" y="-87.5" font-family="Helvetica,sans-Serif" font-size="10.00" fill="#ffffff">pymdownx</text>
</g>
<!-- pymdownx&#45;&gt;markdown_exec -->
<g id="edge3" class="edge">
<title>pymdownx&#45;&gt;markdown_exec</title><style>.edge>path:hover{stroke-width:8}</style>
<path fill="none" stroke="black" d="M101.56,-72.05C97.53,-64.01 92.63,-54.2 88.14,-45.23"/>
<polygon fill="#5353b6" stroke="black" points="91.27,-43.65 83.67,-36.28 85.01,-46.78 91.27,-43.65"/>
</g>
<!-- pymdownx_superfences&#45;&gt;markdown_exec -->
<g id="edge4" class="edge">
<title>pymdownx_superfences&#45;&gt;markdown_exec</title><style>.edge>path:hover{stroke-width:8}</style>
<path fill="none" stroke="black" d="M86.69,-148.93C64.77,-136.83 40.65,-117.52 40.03,-91"/>
</g>
</g>
</svg>
